<?xml version="1.0" encoding="utf-8"?>
<!-- Generator: Adobe Illustrator 21.0.0, SVG Export Plug-In . SVG Version: 6.00 Build 0)  -->
<svg version="1.1" id="Layer_1" xmlns="http://www.w3.org/2000/svg" xmlns:xlink="http://www.w3.org/1999/xlink" x="0px" y="0px"
	 viewBox="0 0 300 126.6" style="enable-background:new 0 0 300 126.6;" xml:space="preserve">
<style type="text/css">
	.st0{fill:#77798B;}
	.st1{fill:#050505;}
	.st2{fill:#2D4668;}
	.st3{font-family:'SnellRoundhand-Bold';}
	.st4{font-size:41.7686px;}
	.st5{font-size:26.0706px;}
</style>
<g>
	<path class="st0" d="M32.7,123.6C16.3,123.6,3,110.2,3,93.8s13.3-29.7,29.7-29.7s29.7,13.3,29.7,29.7S49.1,123.6,32.7,123.6z"/>
	<path class="st1" d="M32.7,67.1c14.7,0,26.7,12,26.7,26.7s-12,26.7-26.7,26.7S6,108.6,6,93.8S18,67.1,32.7,67.1 M32.7,61.1
		C14.7,61.1,0,75.8,0,93.8s14.7,32.7,32.7,32.7s32.7-14.7,32.7-32.7S50.8,61.1,32.7,61.1L32.7,61.1z"/>
</g>
<g>
	<path class="st0" d="M71.7,67.9c-13.2,0-24-10.7-24-24c0-13.2,10.7-24,24-24c13.2,0,24,10.7,24,24C95.7,57.1,85,67.9,71.7,67.9z"/>
	<path class="st1" d="M71.7,22.5c11.8,0,21.5,9.6,21.5,21.5s-9.6,21.5-21.5,21.5s-21.5-9.6-21.5-21.5S59.9,22.5,71.7,22.5
		 M71.7,17.5c-14.6,0-26.5,11.8-26.5,26.5s11.8,26.5,26.5,26.5s26.5-11.8,26.5-26.5S86.4,17.5,71.7,17.5L71.7,17.5z"/>
</g>
<g>
	<path class="st0" d="M126.8,43.8c-11.4,0-20.6-9.2-20.6-20.6s9.2-20.6,20.6-20.6s20.6,9.2,20.6,20.6S138.2,43.8,126.8,43.8z"/>
	<path class="st1" d="M126.8,4.1c10.5,0,19.1,8.6,19.1,19.1s-8.6,19.1-19.1,19.1s-19.1-8.6-19.1-19.1S116.3,4.1,126.8,4.1
		 M126.8,1.1c-12.2,0-22.1,9.9-22.1,22.1s9.9,22.1,22.1,22.1c12.2,0,22.1-9.9,22.1-22.1S139,1.1,126.8,1.1L126.8,1.1z"/>
</g>
<g>
	<path class="st0" d="M177.9,33.9c-9.1,0-16.5-7.4-16.5-16.5S168.8,1,177.9,1s16.5,7.4,16.5,16.5S186.9,33.9,177.9,33.9z"/>
	<path class="st1" d="M177.9,2c8.5,0,15.5,6.9,15.5,15.5s-6.9,15.5-15.5,15.5c-8.5,0-15.5-6.9-15.5-15.5S169.3,2,177.9,2 M177.9,0
		c-9.6,0-17.5,7.8-17.5,17.5s7.8,17.5,17.5,17.5c9.6,0,17.5-7.8,17.5-17.5S187.5,0,177.9,0L177.9,0z"/>
</g>
<g>
	<path class="st0" d="M220.4,30.6c-7.2,0-13.1-5.9-13.1-13.1s5.9-13.1,13.1-13.1s13.1,5.9,13.1,13.1S227.7,30.6,220.4,30.6z"/>
	<path class="st1" d="M220.4,4.8c7,0,12.6,5.7,12.6,12.6s-5.7,12.6-12.6,12.6s-12.6-5.7-12.6-12.6S213.4,4.8,220.4,4.8 M220.4,3.8
		c-7.5,0-13.6,6.1-13.6,13.6c0,7.5,6.1,13.6,13.6,13.6S234,25,234,17.5C234,9.9,227.9,3.8,220.4,3.8L220.4,3.8z"/>
</g>
<text transform="matrix(1 0 0 1 98.4038 80.4053)" class="st2 st3 st4">Spectacular</text>
<text transform="matrix(1 0 0 1 71.895 112.9736)" class="st2 st3 st5">Optometry</text>
</svg>
